<svg width="258" height="258" viewBox="0 0 258 258" fill="none" xmlns="http://www.w3.org/2000/svg">
<g clip-path="url(#clip0_200_181)">
<rect width="258" height="258" fill="white"/>
<circle cx="53" cy="53" r="39" fill="white" stroke="black" stroke-width="2"/>
<path d="M37.0795 53.4318V61H33.4489V47.9091H36.9091V50.2188H37.0625C37.3523 49.4574 37.8381 48.8551 38.5199 48.4119C39.2017 47.9631 40.0284 47.7386 41 47.7386C41.9091 47.7386 42.7017 47.9375 43.3778 48.3352C44.054 48.733 44.5795 49.3011 44.9545 50.0398C45.3295 50.7727 45.517 51.6477 45.517 52.6648V61H41.8864V53.3125C41.892 52.5114 41.6875 51.8864 41.2727 51.4375C40.858 50.983 40.2869 50.7557 39.5597 50.7557C39.071 50.7557 38.6392 50.8608 38.2642 51.071C37.8949 51.2812 37.6051 51.5881 37.3949 51.9915C37.1903 52.3892 37.0852 52.8693 37.0795 53.4318ZM55.4183 47.9091V50.6364H47.3388V47.9091H55.4183ZM49.1882 61V46.9631C49.1882 46.0142 49.3729 45.2273 49.7422 44.6023C50.1172 43.9773 50.6286 43.5085 51.2763 43.196C51.924 42.8835 52.6598 42.7273 53.4837 42.7273C54.0405 42.7273 54.549 42.7699 55.0092 42.8551C55.4751 42.9403 55.8217 43.017 56.049 43.0852L55.4013 45.8125C55.2592 45.767 55.0831 45.7244 54.8729 45.6847C54.6683 45.6449 54.4581 45.625 54.2422 45.625C53.7081 45.625 53.3359 45.75 53.1257 46C52.9155 46.2443 52.8104 46.5881 52.8104 47.0312V61H49.1882ZM63.0824 61.2557C61.7415 61.2557 60.5881 60.9716 59.6222 60.4034C58.6619 59.8295 57.9233 59.0341 57.4062 58.017C56.8949 57 56.6392 55.8295 56.6392 54.5057C56.6392 53.1648 56.8977 51.9886 57.4148 50.9773C57.9375 49.9602 58.679 49.1676 59.6392 48.5994C60.5994 48.0256 61.7415 47.7386 63.0653 47.7386C64.2074 47.7386 65.2074 47.946 66.0653 48.3608C66.9233 48.7756 67.6023 49.358 68.1023 50.108C68.6023 50.858 68.8778 51.7386 68.929 52.75H65.5028C65.4063 52.0966 65.1506 51.571 64.7358 51.1733C64.3267 50.7699 63.7898 50.5682 63.125 50.5682C62.5625 50.5682 62.071 50.7216 61.6506 51.0284C61.2358 51.3295 60.9119 51.7699 60.679 52.3494C60.446 52.929 60.3295 53.6307 60.3295 54.4545C60.3295 55.2898 60.4432 56 60.6705 56.5852C60.9034 57.1705 61.2301 57.6165 61.6506 57.9233C62.071 58.2301 62.5625 58.3835 63.125 58.3835C63.5398 58.3835 63.9119 58.2983 64.2415 58.1278C64.5767 57.9574 64.8523 57.7102 65.0682 57.3864C65.2898 57.0568 65.4347 56.6619 65.5028 56.2017H68.929C68.8722 57.2017 68.5994 58.0824 68.1108 58.8438C67.6278 59.5994 66.9602 60.1903 66.108 60.6165C65.2557 61.0426 64.2472 61.2557 63.0824 61.2557Z" fill="black"/>
<rect x="83.7071" y="172.994" width="122.028" height="184.621" transform="rotate(-45 83.7071 172.994)" fill="#D9D9D9" stroke="black"/>
<path d="M169.156 85.8492C171.002 87.6958 171.695 90.6343 171.236 94.4981C170.778 98.3547 169.18 103.044 166.569 108.265C161.349 118.701 152.131 131.158 140.145 143.145C128.158 155.131 115.701 164.349 105.265 169.569C100.044 172.18 95.3547 173.778 91.4981 174.236C87.6343 174.695 84.6958 174.002 82.8492 172.156C81.0026 170.309 80.31 167.371 80.7688 163.507C81.2267 159.65 82.8244 154.961 85.4357 149.74C90.6557 139.303 99.8736 126.847 111.86 114.86C123.847 102.874 136.303 93.6557 146.74 88.4357C151.961 85.8244 156.65 84.2267 160.507 83.7688C164.371 83.31 167.309 84.0026 169.156 85.8492Z" fill="#D9D9D9" stroke="black"/>
<path d="M120.882 130.495C121.708 130.56 122.43 129.943 122.495 129.118L123.554 115.659C123.619 114.833 123.002 114.111 122.176 114.046C121.35 113.981 120.628 114.598 120.563 115.424L119.622 127.387L107.659 126.446C106.833 126.381 106.111 126.998 106.046 127.824C105.981 128.65 106.598 129.372 107.424 129.437L120.882 130.495ZM78.8594 81.9742L119.859 129.974L122.141 128.026L81.1406 80.0258L78.8594 81.9742Z" fill="black"/>
</g>
<defs>
<clipPath id="clip0_200_181">
<rect width="258" height="258" fill="white"/>
</clipPath>
</defs>
</svg>
